Full Credits to (Pitic):

 ######## ######## ######## ##          ######## ########  ######## ######
 ##       ##       ##       ##          ##       ##     ## ##       ##       
 ##       ##       ##       ##          ##       ##     ## ##       ##       
 ######   ######   ######   ##          ######   ########  ######   ######   
 ##       ##       ##       ##          ##       ##   ##   ##       ##       
 ##       ##       ##       ##          ##       ##    ##  ##       ##       
 ##       ######## ######## ########    ##       ##     ## ######## ######


Genre:Action | Crime | Thriller
 Language:English
 IMDb: 
http://www.imdb.com/title/tt1130969/
 Source:BluRay.x264-SAiMORNY Thanks!

 Format : MPEG-4
 Format profile : Base Media
 Codec ID : isom
 File size : 2.46 GiB
 Duration : 1h 44mn
 Overall bit rate : 3 391 Kbps

 Video
 ID : 1
 Format : AVC
 Format/Info : Advanced Video Codec
 Format profile : High@L4.1
 Format settings, CABAC : Yes
 Format settings, ReFrames : 3 frames
 Codec ID : avc1
 Codec ID/Info : Advanced Video Coding
 Duration : 1h 44mn
 Bit rate mode : Variable
 Bit rate : 3 000 Kbps
 Maximum bit rate : 14.8 Mbps
 Width : 1 280 pixels
 Height : 544 pixels
 Display aspect ratio : 2.35:1
 Frame rate mode : Constant
 Frame rate : 23.976 fps
 Color space : YUV
 Chroma subsampling : 4:2:0
 Bit depth : 8 bits
 Scan type : Progressive
 Bits/(Pixel*Frame) : 0.180
 Stream size : 2.14 GiB (87%)
 Writing library : x264

 Audio
 ID : 2
 Format : AAC
 Format/Info : Advanced Audio Codec
 Format version : Version 4
 Format profile : LC
 Format settings, SBR : No
 Codec ID : 40
 Duration : 1h 44mn
 Bit rate mode : Variable
 Bit rate : 447 Kbps
 Maximum bit rate : 584 Kbps
 Channel(s) : 6 channels
 Channel positions : Front: L C R, Side: L R, LFE
 Sampling rate : 48.0 KHz
 Stream size : 332 MiB (13%)

 Plot:
 n lawless storm ravaged New Orleans, beleaguered Detective Sean Riley is trying to cope with the death of his young son and the abandonment of his wife.



Greets:

 INK,CRYS,IMAGINE,LKRG,FXG,3Li,FLAWL3SS,TA,iLLUSiON,ViSiON,DTRG SAFCuk009,LU,TheFalcon007,MYSTiC,PrisM,Noir,WBZ,LAP,Rx,Kingdom,SAFCuk009+Fabreezy,HDLiTE,TWiZTED,ExtraTorrentRG.ELEKTRI4KA,MAGNAT,CM8
 And to all the other p2p grps past and present




================================== 
http://thepiratebay.org/user/hiest
==================================




Screenshots:
  
http://leetleech.org/images/01296318855033369132.png
 
http://leetleech.org/images/11388562662850235936.png
 
http://leetleech.org/images/03550711229955870642.png
 
http://leetleech.org/images/42527577249146795749.png
 
http://leetleech.org/images/81905200933650752524.png
 
http://leetleech.org/images/65345122312638290316.png


Full Credits to (Pitic):

 ######## ######## ######## ##          ######## ########  ######## ######
 ##       ##       ##       ##          ##       ##     ## ##       ##       
 ##       ##       ##       ##          ##       ##     ## ##       ##       
 ######   ######   ######   ##          ######   ########  ######   ######   
 ##       ##       ##       ##          ##       ##   ##   ##       ##       
 ##       ##       ##       ##          ##       ##    ##  ##       ##       
 ##       ######## ######## ########    ##       ##     ## ######## ######